<?xml version="1.0" encoding="utf-8"?>
<!-- Generator: Adobe Illustrator 27.5.0, SVG Export Plug-In . SVG Version: 6.00 Build 0)  -->
<svg version="1.1" id="Layer_1" xmlns="http://www.w3.org/2000/svg" xmlns:xlink="http://www.w3.org/1999/xlink" x="0px" y="0px"
	 viewBox="0 0 2122 2122" style="enable-background:new 0 0 2122 2122;" xml:space="preserve">
<g>
	<rect style="fill:#4A0070;" width="2121.32" height="2121.32"/>
	<g style="opacity:0.1;">
		<path style="fill:#FFFFFF;" d="M1004.486,560.398l-710.759,691.856c2.695,9.819,5.643,19.533,8.828,29.151l730.847-711.411
			C1023.869,566.555,1014.234,563.351,1004.486,560.398z M1203.641,665.556L393.59,1454.064
			c5.482,7.222,11.116,14.317,16.914,21.281l813.968-792.321C1217.662,677.045,1210.717,671.226,1203.641,665.556z
			 M1078.308,588.211l-758.731,738.555c3.756,8.831,7.726,17.553,11.894,26.167l772.687-752.14
			C1095.655,596.397,1087.04,592.199,1078.308,588.211z M921.292,541.709l-644.041,626.912c1.352,11.06,3.013,22.026,4.977,32.901
			l671.832-653.966C943.237,545.305,932.315,543.353,921.292,541.709z M1256.806,713.475l-816.712,794.991
			c6.264,6.488,12.685,12.821,19.233,19.023l815.99-794.289C1269.29,726.492,1263.128,719.908,1256.806,713.475z M850.32,535.325
			c-8.328-0.222-16.589-0.163-24.831-0.033l-552.107,537.424c-0.349,8.233-0.628,16.487-0.628,24.814
			c0,4.43,0.234,8.808,0.334,13.217L863.528,536.01C859.122,535.793,854.75,535.443,850.32,535.325z M529.45,624.115
			L370.079,779.247c-17.835,26.165-33.406,54.009-46.676,83.178l290.466-282.74C584.347,592.169,556.089,606.989,529.45,624.115z
			 M708.947,549.063L290.253,956.62c-3.926,15.494-7.167,31.273-9.794,47.277l476.027-463.365
			C740.411,542.733,724.545,545.552,708.947,549.063z M1144.333,623.612l-791.11,770.072c4.662,7.989,9.506,15.855,14.524,23.607
			l799.806-778.538C1159.935,633.532,1152.198,628.483,1144.333,623.612z M1034.705,1665.118l362.94-353.289
			c5.803-17.077,10.808-34.529,14.986-52.333l-430.658,419.206C999.888,1675,1017.474,1670.463,1034.705,1665.118z
			 M867.479,1690.478c13.496-0.035,26.911-0.395,40.161-1.348l517.396-503.636c1.305-13.215,2.021-26.61,2.416-40.096
			L867.479,1690.478z M1343.919,1426.053l-193.562,188.414C1229.315,1568.469,1295.821,1503.732,1343.919,1426.053z
			 M1422.546,1050.502l-649.833,632.551c11.299,1.819,22.701,3.295,34.197,4.456l619.183-602.715
			C1425.239,1073.275,1424.065,1061.842,1422.546,1050.502z M1344.687,827.274l-793.13,772.036
			c7.876,4.979,15.87,9.783,23.986,14.397l782.903-762.081C1354.047,843.393,1349.456,835.276,1344.687,827.274z M1303.76,767.441
			l-810.948,789.381c7.05,5.753,14.227,11.347,21.537,16.78l805.618-784.193C1314.728,781.96,1309.325,774.639,1303.76,767.441z
			 M1378.735,893.805L617.18,1635.103c8.798,4.122,17.703,8.036,26.726,11.731l745.847-726.01
			C1386.299,911.71,1382.622,902.706,1378.735,893.805z M1405.258,967.658l-714.931,695.915c9.892,3.11,19.889,5.958,29.99,8.552
			l692.695-674.271C1410.688,987.691,1408.105,977.625,1405.258,967.658z"/>
	</g>
	<g style="opacity:0.1;">
		<path style="fill:#FFFFFF;" d="M1406.88,401.094L696.122,1092.95c2.695,9.82,5.643,19.534,8.828,29.152l730.848-711.411
			C1426.264,407.252,1416.628,404.048,1406.88,401.094z M1606.035,506.252l-810.052,788.509c5.482,7.222,11.116,14.318,16.915,21.28
			l813.968-792.321C1620.057,517.742,1613.111,511.923,1606.035,506.252z M1480.702,428.907l-758.73,738.555
			c3.756,8.832,7.726,17.552,11.893,26.167l772.687-752.14C1498.05,437.094,1489.435,432.895,1480.702,428.907z M1323.686,382.405
			l-644.04,626.913c1.352,11.06,3.013,22.026,4.976,32.9l671.833-653.965C1345.632,386.001,1334.71,384.05,1323.686,382.405z
			 M1659.2,554.172l-816.711,794.991c6.264,6.488,12.684,12.821,19.233,19.023l815.99-794.289
			C1671.684,567.188,1665.522,560.605,1659.2,554.172z M1252.714,376.021c-8.328-0.221-16.588-0.162-24.831-0.032L675.777,913.413
			c-0.349,8.233-0.628,16.487-0.628,24.814c0,4.43,0.235,8.808,0.334,13.216l590.439-574.736
			C1261.516,376.49,1257.144,376.139,1252.714,376.021z M931.844,464.811L772.473,619.943
			c-17.835,26.166-33.406,54.009-46.675,83.179l290.466-282.74C986.742,432.866,958.484,447.685,931.844,464.811z M1111.341,389.759
			L692.647,797.317c-3.926,15.494-7.167,31.274-9.794,47.278L1158.88,381.23C1142.806,383.43,1126.94,386.249,1111.341,389.759z
			 M1546.728,464.308l-791.11,770.073c4.661,7.989,9.506,15.855,14.524,23.607l799.806-778.539
			C1562.33,474.229,1554.592,469.179,1546.728,464.308z M1437.099,1505.815l362.939-353.29
			c5.803-17.076,10.808-34.528,14.987-52.333l-430.658,419.207C1402.283,1515.697,1419.868,1511.159,1437.099,1505.815z
			 M1269.873,1531.175c13.497-0.036,26.911-0.395,40.161-1.348l517.396-503.636c1.306-13.215,2.021-26.61,2.416-40.097
			L1269.873,1531.175z M1746.314,1266.749l-193.562,188.415C1631.709,1409.166,1698.215,1344.429,1746.314,1266.749z
			 M1824.941,891.198l-649.833,632.55c11.3,1.82,22.702,3.296,34.198,4.457l619.182-602.716
			C1827.632,913.972,1826.46,902.539,1824.941,891.198z M1747.08,667.971l-793.129,772.037c7.876,4.979,15.869,9.783,23.986,14.397
			l782.903-762.082C1756.442,684.09,1751.85,675.974,1747.08,667.971z M1706.154,608.138l-810.948,789.38
			c7.05,5.753,14.227,11.348,21.537,16.78l805.618-784.192C1717.123,622.657,1711.72,615.336,1706.154,608.138z M1781.129,734.502
			L1019.575,1475.8c8.797,4.122,17.703,8.036,26.726,11.73l745.847-726.009C1788.694,752.407,1785.017,743.404,1781.129,734.502z
			 M1807.653,808.354l-714.931,695.915c9.891,3.11,19.889,5.959,29.99,8.552l692.695-674.271
			C1813.082,828.388,1810.5,818.322,1807.653,808.354z"/>
	</g>
	<polygon style="fill:#FF8000;" points="474.66,654.748 1607.326,1125.159 1607.326,1501.085 474.66,1030.674 	"/>
	<polygon style="fill:#FFD500;" points="1607.326,1125.159 489.564,1138.932 601.34,1329.644 489.564,1514.858 1607.326,1501.085 	
		"/>
	<g>
		<path style="fill:#4A0070;" d="M698.451,1440.167c-16.68-4.337-30.383-10.232-41.101-17.677l23.054-58.907
			c10.11,6.545,21.432,11.767,33.973,15.673c12.538,3.91,24.572,5.826,36.099,5.751c9.905-0.061,16.986-1.184,21.234-3.381
			c4.244-2.187,6.37-5.445,6.37-9.776c0-5.006-2.784-8.747-8.345-11.221c-5.563-2.468-14.709-5.143-27.448-8.028
			c-16.382-3.769-30.031-7.84-40.95-12.214c-10.923-4.373-20.428-11.599-28.513-21.683c-8.092-10.081-12.134-23.78-12.134-41.09
			c0-15.033,3.74-28.722,11.225-41.065c7.477-12.347,18.655-22.097,33.516-29.251c14.864-7.154,32.911-10.797,54.145-10.93
			c14.559-0.094,28.862,1.582,42.921,5.024c14.048,3.446,26.435,8.542,37.156,15.31l-21.54,58.556
			c-20.824-11.707-40.54-17.512-59.145-17.393c-18.403,0.116-27.603,5.186-27.603,15.206c0,4.783,2.73,8.351,8.189,10.71
			c5.463,2.355,14.458,4.858,26.999,7.513c16.174,3.316,29.826,7.157,40.95,11.53c11.113,4.37,20.773,11.545,28.963,21.511
			c8.189,9.977,12.286,23.615,12.286,40.922c0,15.033-3.744,28.664-11.225,40.893c-7.485,12.239-18.656,21.985-33.513,29.254
			c-14.864,7.266-32.911,10.966-54.145,11.103C732.273,1446.616,715.135,1444.501,698.451,1440.167z"/>
		<path style="fill:#4A0070;" d="M1029.832,1397.602l-80.681,0.504l-14.256,41.77l-72.797,0.46l92.82-239.73l70.366-0.443
			l92.819,238.562l-74.013,0.468L1029.832,1397.602z M1010.116,1339.648l-20.622-60.001l-20.626,60.26L1010.116,1339.648z"/>
		<path style="fill:#4A0070;" d="M1144.796,1199.416l71.585-0.45v176.626l95.851-0.604v62.518l-167.436,1.054V1199.416z"/>
		<path style="fill:#4A0070;" d="M1523.646,1375.369v60.81l-176.536,1.108v-239.144l172.594-1.082v60.81l-102.224,0.64v28.014
			l89.787-0.561v58.08l-89.787,0.561v31.43L1523.646,1375.369z"/>
	</g>
	<polygon style="fill:#FFD500;" points="1730.28,1016.221 474.66,1030.674 474.66,654.748 1730.28,640.295 1599.874,840.776 	"/>
	<g>
		<path style="fill:#4A0070;" d="M774.971,955.492l-0.583-104.667l-44.28,84.274l-30.297,0.191l-44.284-80.109V956.24l-62.63,0.396
			V726.957l56.513-0.356l66.425,121.969l64.672-122.793l56.513-0.357l0.583,229.675L774.971,955.492z"/>
		<path style="fill:#4A0070;" d="M1037.446,895.437v58.404l-169.547,1.065V725.227l165.761-1.039v58.404l-98.174,0.615v26.906
			l86.23-0.54v55.779l-86.23,0.539v30.186L1037.446,895.437z"/>
		<path style="fill:#4A0070;" d="M1195.92,831.771l59.72-0.374v97.121c-12.045,9.484-26.028,16.792-41.95,21.917
			c-15.929,5.133-31.563,7.751-46.899,7.844c-21.755,0.136-41.274-4.827-58.559-14.89c-17.289-10.063-30.833-24.198-40.637-42.399
			c-9.811-18.198-14.714-38.897-14.714-62.087c0-23.183,4.903-43.939,14.714-62.267c9.804-18.324,23.496-32.631,41.076-42.913
			c17.576-10.283,37.436-15.494,59.576-15.631c19.997-0.126,37.915,3.536,53.743,10.98c15.829,7.449,28.988,18.357,39.476,32.729
			l-43.989,43.917c-12.818-16.764-28.067-25.09-45.733-24.978c-15.149,0.094-27.193,5.312-36.127,15.648
			s-13.401,24.363-13.401,42.079c0,17.285,4.417,31.142,13.257,41.59c8.837,10.444,20.634,15.62,35.397,15.526
			c8.736-0.055,17.083-1.964,25.05-5.736V831.771z"/>
		<path style="fill:#4A0070;" d="M1421.109,911.402l-77.491,0.485l-13.692,40.116l-69.917,0.443l89.144-230.239l67.586-0.424
			l89.143,229.117l-71.082,0.446L1421.109,911.402z M1402.174,855.742l-19.809-57.624l-19.81,57.872L1402.174,855.742z"/>
	</g>
	<g>
		<path style="fill:#FFFFFF;" d="M643.094,547.695l17.461-0.107v43.086l23.381-0.147v15.249l-40.842,0.255V547.695z"/>
		<path style="fill:#FFFFFF;" d="M692.999,553.76c-1.849-1.795-2.777-4.079-2.777-6.859c0-2.777,0.928-5.079,2.777-6.894
			c1.848-1.816,4.279-2.737,7.286-2.755c3.061-0.018,5.503,0.831,7.327,2.54c1.827,1.712,2.736,3.931,2.736,6.65
			c0,2.892-0.91,5.269-2.736,7.139c-1.824,1.878-4.266,2.823-7.327,2.842C697.279,556.438,694.847,555.554,692.999,553.76z
			 M691.928,560.14l16.72-0.105v45.586l-16.72,0.104V560.14z"/>
		<path style="fill:#FFFFFF;" d="M785.048,563.804c2.935,3.37,4.402,8.47,4.402,15.304v26.002l-16.724,0.108v-22.752
			c0-5.222-1.503-7.826-4.514-7.808c-1.579,0.01-2.848,0.683-3.809,2.025c-0.964,1.341-1.442,3.456-1.442,6.344v22.252
			l-16.724,0.104v-22.751c0-5.222-1.507-7.822-4.514-7.805c-1.579,0.011-2.848,0.684-3.813,2.021
			c-0.96,1.341-1.442,3.457-1.442,6.344v22.252l-16.72,0.105v-45.586l15.908-0.1v4.251c3.007-3.406,6.83-5.129,11.469-5.157
			c2.712-0.014,5.154,0.54,7.326,1.665c2.169,1.125,3.946,2.852,5.327,5.175c1.629-2.233,3.6-3.952,5.92-5.161
			c2.316-1.208,4.859-1.827,7.621-1.841C778.204,558.762,782.114,560.434,785.048,563.804z"/>
		<path style="fill:#FFFFFF;" d="M801.47,553.076c-1.848-1.791-2.776-4.078-2.776-6.859c0-2.776,0.928-5.074,2.776-6.894
			c1.849-1.816,4.28-2.733,7.287-2.751c3.06-0.022,5.499,0.827,7.322,2.539c1.827,1.712,2.737,3.927,2.737,6.646
			c0,2.892-0.91,5.272-2.737,7.143c-1.823,1.873-4.262,2.82-7.322,2.841C805.75,555.759,803.319,554.87,801.47,553.076z
			 M800.398,559.456l16.717-0.105v45.586l-16.717,0.104V559.456z"/>
		<path style="fill:#FFFFFF;" d="M858.036,603.1c-2.518,1.626-5.945,2.453-10.286,2.482c-5.672,0.032-10.038-1.482-13.095-4.546
			c-3.06-3.064-4.589-7.682-4.589-13.847v-11.667l-5.55,0.036v-13.753l5.55-0.035v-12.75l16.724-0.105v12.75l8.286-0.05v13.753
			l-8.286,0.051v11.498c0,1.392,0.32,2.475,0.96,3.247c0.64,0.77,1.482,1.155,2.518,1.148c1.428-0.007,2.687-0.432,3.773-1.27
			L858.036,603.1z"/>
		<path style="fill:#FFFFFF;" d="M907.686,585.952l-28.117,0.176c0.589,1.719,1.578,3.032,2.959,3.941
			c1.381,0.907,3.108,1.352,5.179,1.342c1.777-0.011,3.266-0.27,4.478-0.777c1.205-0.507,2.525-1.377,3.957-2.611l8.732,9.866
			c-3.949,4.913-9.84,7.394-17.684,7.445c-4.884,0.029-9.175-0.957-12.875-2.963c-3.701-2.003-6.56-4.805-8.582-8.406
			c-2.025-3.596-3.035-7.649-3.035-12.149c0-4.553,1-8.628,2.996-12.228c2-3.593,4.736-6.402,8.214-8.423
			c3.478-2.021,7.387-3.049,11.728-3.078c4.093-0.026,7.83,0.87,11.211,2.683c3.377,1.813,6.067,4.489,8.063,8.034
			c2,3.543,2.996,7.783,2.996,12.732C907.906,581.809,907.834,583.286,907.686,585.952z M881.493,572.533
			c-1.137,1.064-1.878,2.568-2.223,4.514l13.023-0.083c-0.345-1.888-1.083-3.366-2.219-4.442c-1.133-1.079-2.564-1.611-4.291-1.601
			C884.057,570.933,882.626,571.472,881.493,572.533z"/>
		<path style="fill:#FFFFFF;" d="M961.628,542.196v61.835l-15.911,0.097v-3.751c-2.417,3.074-6.117,4.625-11.099,4.657
			c-3.55,0.021-6.819-0.917-9.805-2.816c-2.985-1.9-5.351-4.647-7.103-8.247c-1.752-3.6-2.626-7.761-2.626-12.483
			c0-4.722,0.874-8.884,2.626-12.476c1.752-3.597,4.118-6.359,7.103-8.294c2.985-1.935,6.255-2.917,9.805-2.938
			c4.489-0.029,7.919,1.258,10.286,3.855v-19.335L961.628,542.196z M943.35,587.937c1.234-1.593,1.849-3.805,1.849-6.639
			c0-2.834-0.615-5.024-1.849-6.571c-1.233-1.546-2.812-2.312-4.736-2.302c-1.925,0.011-3.503,0.799-4.733,2.359
			c-1.234,1.564-1.852,3.762-1.852,6.597c0,2.834,0.619,5.038,1.852,6.614c1.23,1.576,2.809,2.359,4.733,2.348
			C940.537,590.333,942.117,589.527,943.35,587.937z"/>
		<path style="fill:#FFFFFF;" d="M1010.382,560.639l-15.167,0.094v-15.249l47.798-0.298v15.249l-15.17,0.094v43.086l-17.461,0.111
			V560.639z"/>
		<path style="fill:#FFFFFF;" d="M1051.041,551.512c-1.848-1.795-2.776-4.082-2.776-6.863c0-2.776,0.928-5.074,2.776-6.891
			c1.849-1.82,4.28-2.737,7.287-2.755c3.06-0.022,5.503,0.827,7.326,2.539c1.827,1.712,2.737,3.927,2.737,6.646
			c0,2.892-0.91,5.273-2.737,7.143c-1.823,1.874-4.266,2.82-7.326,2.841C1055.321,554.19,1052.889,553.302,1051.041,551.512z
			 M1049.969,557.888l16.721-0.105v45.586l-16.721,0.105V557.888z"/>
		<path style="fill:#FFFFFF;" d="M1143.087,561.556c2.935,3.371,4.403,8.47,4.403,15.304v26.003l-16.724,0.104v-22.752
			c0-5.221-1.503-7.822-4.514-7.804c-1.579,0.01-2.848,0.684-3.809,2.025c-0.964,1.338-1.442,3.452-1.442,6.34v22.252l-16.724,0.108
			v-22.752c0-5.222-1.507-7.826-4.514-7.808c-1.579,0.011-2.848,0.684-3.813,2.025c-0.96,1.342-1.442,3.457-1.442,6.345v22.252
			l-16.72,0.104v-45.586l15.908-0.101v4.251c3.007-3.406,6.829-5.129,11.469-5.157c2.712-0.018,5.154,0.54,7.326,1.662
			c2.169,1.126,3.946,2.852,5.327,5.18c1.629-2.234,3.6-3.953,5.92-5.161c2.316-1.212,4.858-1.827,7.62-1.845
			C1136.243,556.514,1140.152,558.186,1143.087,561.556z"/>
		<path style="fill:#FFFFFF;" d="M1202.016,584.103l-28.114,0.176c0.59,1.719,1.579,3.032,2.96,3.942
			c1.377,0.906,3.104,1.352,5.175,1.341c1.776-0.011,3.266-0.27,4.478-0.777c1.205-0.507,2.525-1.381,3.956-2.611l8.733,9.866
			c-3.95,4.913-9.841,7.394-17.684,7.444c-4.881,0.029-9.171-0.957-12.872-2.963c-3.701-2.003-6.56-4.805-8.581-8.405
			c-2.025-3.597-3.035-7.65-3.035-12.149c0-4.554,1-8.628,2.996-12.229c2-3.593,4.737-6.401,8.215-8.423
			c3.477-2.021,7.387-3.049,11.725-3.078c4.092-0.025,7.83,0.87,11.21,2.683c3.377,1.813,6.068,4.489,8.064,8.035
			c1.999,3.542,2.996,7.783,2.996,12.728C1202.235,579.96,1202.163,581.438,1202.016,584.103z M1175.827,570.685
			c-1.137,1.064-1.878,2.568-2.223,4.51l13.02-0.079c-0.345-1.889-1.083-3.367-2.219-4.442c-1.133-1.078-2.564-1.611-4.291-1.6
			C1178.387,569.084,1176.959,569.624,1175.827,570.685z"/>
		<path style="fill:#FFFFFF;" d="M1249.742,599.637c-4.441-2.583-7.92-6.187-10.433-10.808c-2.518-4.625-3.773-9.855-3.773-15.688
			s1.255-11.077,3.773-15.731c2.514-4.654,5.992-8.301,10.433-10.945c4.438-2.636,9.444-3.974,15.019-4.01
			c5.574-0.036,10.581,1.24,15.022,3.823c4.439,2.586,7.916,6.19,10.43,10.811c2.518,4.621,3.776,9.851,3.776,15.684
			c0,5.834-1.259,11.077-3.776,15.735c-2.514,4.654-5.991,8.301-10.43,10.941c-4.442,2.64-9.448,3.974-15.022,4.01
			C1259.186,603.496,1254.18,602.222,1249.742,599.637z M1270.645,585.714c1.748-1.204,3.144-2.909,4.179-5.11
			c1.036-2.201,1.553-4.773,1.553-7.719s-0.518-5.509-1.553-7.696c-1.036-2.191-2.431-3.874-4.179-5.06
			c-1.752-1.183-3.712-1.769-5.884-1.755c-2.173,0.015-4.133,0.622-5.881,1.827c-1.751,1.212-3.147,2.913-4.182,5.114
			c-1.036,2.201-1.554,4.772-1.554,7.719c0,2.946,0.518,5.51,1.554,7.697c1.036,2.19,2.431,3.876,4.182,5.056
			c1.748,1.183,3.708,1.769,5.881,1.755C1266.933,587.527,1268.894,586.919,1270.645,585.714z"/>
		<path style="fill:#FFFFFF;" d="M1321.59,558.683l8.804-0.054v13.753l-8.286,0.05v29.333l-16.724,0.105v-29.333l-5.549,0.036
			V558.82l5.549-0.036v-0.248c0-5.945,1.579-10.66,4.737-14.156c3.154-3.492,7.595-5.255,13.318-5.29
			c1.874-0.015,3.701,0.169,5.474,0.547c1.777,0.377,3.259,0.924,4.442,1.64l-3.996,13.109c-1.381-0.712-2.64-1.068-3.773-1.061
			c-1.234,0.007-2.208,0.446-2.924,1.313c-0.716,0.863-1.072,2.187-1.072,3.964V558.683z"/>
		<path style="fill:#FFFFFF;" d="M1356.811,558.46l8.801-0.054v13.753l-8.283,0.054v29.333l-16.724,0.104v-29.333l-5.549,0.032
			v-13.753l5.549-0.032v-0.248c0-5.945,1.579-10.663,4.737-14.16c3.154-3.488,7.596-5.254,13.318-5.29
			c1.87-0.011,3.698,0.172,5.47,0.55c1.777,0.378,3.259,0.924,4.442,1.64l-3.996,13.109c-1.381-0.715-2.64-1.072-3.773-1.064
			c-1.23,0.011-2.205,0.446-2.921,1.316c-0.715,0.863-1.072,2.183-1.072,3.96V558.46z"/>
		<path style="fill:#FFFFFF;" d="M1416.445,582.755l-28.118,0.176c0.59,1.719,1.579,3.035,2.96,3.942
			c1.381,0.91,3.108,1.355,5.179,1.341c1.777-0.011,3.266-0.27,4.478-0.777c1.205-0.507,2.525-1.377,3.956-2.611l8.733,9.866
			c-3.949,4.913-9.84,7.394-17.684,7.444c-4.884,0.033-9.175-0.957-12.875-2.959c-3.701-2.007-6.561-4.809-8.582-8.405
			c-2.025-3.6-3.035-7.65-3.035-12.15c0-4.553,1-8.631,2.996-12.228c1.999-3.597,4.736-6.405,8.214-8.427
			c3.478-2.021,7.387-3.049,11.728-3.074c4.092-0.026,7.83,0.866,11.211,2.679c3.376,1.813,6.067,4.492,8.063,8.035
			c2,3.546,2.996,7.786,2.996,12.732C1416.664,578.615,1416.593,580.09,1416.445,582.755z M1390.251,569.336
			c-1.136,1.064-1.877,2.568-2.223,4.514l13.023-0.083c-0.345-1.885-1.083-3.367-2.219-4.442c-1.133-1.079-2.564-1.607-4.291-1.597
			C1392.816,567.739,1391.384,568.275,1390.251,569.336z"/>
		<path style="fill:#FFFFFF;" d="M1454.622,554.515v16.67c-1.33-0.216-2.564-0.32-3.697-0.313c-5.722,0.036-8.585,3.334-8.585,9.887
			v20.252l-16.721,0.105v-45.586l15.908-0.101v4.917C1444.487,556.492,1448.853,554.551,1454.622,554.515z"/>
	</g>
	<g>
		<path style="fill:#FFFFFF;" d="M767.181,1584.388l15.17-0.094v24.665c-3.06,2.41-6.61,4.266-10.656,5.568
			c-4.047,1.302-8.017,1.967-11.912,1.992c-5.524,0.036-10.484-1.223-14.872-3.784c-4.391-2.553-7.833-6.142-10.322-10.768
			c-2.493-4.621-3.737-9.876-3.737-15.767c0-5.887,1.245-11.16,3.737-15.818c2.488-4.654,5.966-8.286,10.43-10.898
			c4.467-2.614,9.509-3.938,15.134-3.97c5.078-0.032,9.628,0.899,13.652,2.791c4.017,1.891,7.362,4.661,10.023,8.308l-11.171,11.157
			c-3.259-4.259-7.132-6.374-11.616-6.345c-3.849,0.026-6.909,1.349-9.178,3.974c-2.269,2.625-3.402,6.189-3.402,10.689
			c0,4.388,1.122,7.908,3.366,10.562c2.244,2.651,5.24,3.967,8.991,3.942c2.219-0.011,4.341-0.496,6.362-1.457V1584.388z"/>
		<path style="fill:#FFFFFF;" d="M835.846,1596.289l-28.114,0.177c0.59,1.719,1.579,3.035,2.96,3.941
			c1.381,0.91,3.104,1.356,5.175,1.341c1.777-0.01,3.266-0.266,4.478-0.776c1.205-0.507,2.525-1.377,3.956-2.607l8.733,9.861
			c-3.949,4.913-9.84,7.394-17.684,7.445c-4.88,0.032-9.171-0.957-12.872-2.96c-3.701-2.007-6.561-4.808-8.582-8.405
			c-2.025-3.6-3.035-7.65-3.035-12.149c0-4.553,1-8.632,2.996-12.229c2-3.596,4.737-6.405,8.215-8.426
			c3.477-2.021,7.387-3.05,11.725-3.075c4.092-0.025,7.83,0.867,11.21,2.68c3.377,1.813,6.068,4.492,8.064,8.035
			c2,3.546,2.996,7.786,2.996,12.732C836.065,1592.15,835.993,1593.624,835.846,1596.289z M809.656,1582.87
			c-1.136,1.065-1.878,2.568-2.223,4.514l13.02-0.083c-0.345-1.884-1.083-3.366-2.219-4.442c-1.133-1.079-2.564-1.608-4.29-1.597
			C812.22,1581.274,810.789,1581.81,809.656,1582.87z"/>
		<path style="fill:#FFFFFF;" d="M874.84,1612.88c-2.518,1.629-5.946,2.456-10.286,2.482c-5.672,0.036-10.038-1.478-13.095-4.542
			c-3.061-3.068-4.589-7.682-4.589-13.847v-11.667l-5.549,0.036v-13.753l5.549-0.036v-12.749l16.724-0.104v12.75l8.286-0.055v13.753
			l-8.286,0.055v11.498c0,1.392,0.32,2.47,0.96,3.244c0.64,0.773,1.482,1.158,2.518,1.151c1.427-0.011,2.686-0.432,3.773-1.273
			L874.84,1612.88z"/>
		<path style="fill:#FFFFFF;" d="M952.899,1568.387v45.586l-15.911,0.101v-4.334c-1.478,1.73-3.205,3.032-5.18,3.91
			c-1.974,0.87-4.067,1.316-6.29,1.33c-5.128,0.032-9.246-1.708-12.354-5.219c-3.108-3.503-4.661-8.814-4.661-15.929v-25.169
			l16.72-0.104v21.917c0,3.114,0.446,5.33,1.331,6.661c0.888,1.327,2.197,1.985,3.924,1.974c1.626-0.01,2.985-0.751,4.067-2.233
			c1.086-1.478,1.629-3.801,1.629-6.97v-21.417L952.899,1568.387z"/>
		<path style="fill:#FFFFFF;" d="M1000.804,1570.128c2.985,1.899,5.352,4.646,7.103,8.247c1.752,3.604,2.625,7.761,2.625,12.483
			c0,4.722-0.873,8.884-2.625,12.477c-1.752,3.597-4.118,6.359-7.103,8.293c-2.985,1.935-6.247,2.917-9.8,2.939
			c-4.489,0.029-7.916-1.255-10.286-3.852v19.249l-16.72,0.108v-61.752l15.907-0.101v3.751c2.417-3.068,6.114-4.626,11.099-4.658
			C994.557,1567.29,997.82,1568.229,1000.804,1570.128z M991.745,1597.563c1.229-1.565,1.848-3.762,1.848-6.596
			c0-2.834-0.619-5.039-1.848-6.614c-1.234-1.575-2.813-2.356-4.737-2.344c-1.924,0.014-3.503,0.812-4.737,2.406
			c-1.234,1.589-1.849,3.802-1.849,6.636c0,2.834,0.615,5.024,1.849,6.575c1.234,1.543,2.813,2.316,4.737,2.302
			C988.932,1599.915,990.511,1599.124,991.745,1597.563z"/>
		<path style="fill:#FFFFFF;" d="M1049.307,1611.787c-2.518,1.626-5.945,2.453-10.286,2.479c-5.672,0.035-10.038-1.478-13.095-4.542
			c-3.061-3.065-4.59-7.682-4.59-13.847v-11.667l-5.549,0.036v-13.753l5.549-0.036v-12.75l16.724-0.104v12.749l8.286-0.05v13.753
			l-8.286,0.05v11.499c0,1.391,0.321,2.474,0.961,3.244c0.64,0.773,1.482,1.158,2.518,1.15c1.428-0.007,2.687-0.431,3.773-1.269
			L1049.307,1611.787z"/>
		<path style="fill:#FFFFFF;" d="M1065.402,1611.057c-3.579-2.003-6.377-4.791-8.398-8.362c-2.025-3.572-3.035-7.636-3.035-12.193
			c0-4.553,1.011-8.628,3.035-12.228c2.021-3.593,4.819-6.402,8.398-8.426c3.575-2.021,7.607-3.05,12.094-3.079
			c4.54-0.029,8.596,0.949,12.175,2.928c3.575,1.978,6.362,4.751,8.362,8.319c1.996,3.575,2.996,7.639,2.996,12.192
			c0,4.557-1,8.632-2.996,12.229c-2,3.597-4.787,6.42-8.362,8.47c-3.579,2.05-7.635,3.089-12.175,3.118
			C1073.009,1614.052,1068.977,1613.064,1065.402,1611.057z M1082.234,1596.951c1.234-1.589,1.849-3.801,1.849-6.636
			c0-2.834-0.615-5.024-1.849-6.575c-1.234-1.546-2.812-2.313-4.737-2.302c-1.924,0.015-3.502,0.798-4.733,2.363
			c-1.234,1.564-1.852,3.762-1.852,6.596c0,2.834,0.619,5.039,1.852,6.615c1.23,1.572,2.809,2.359,4.733,2.344
			C1079.421,1599.347,1081,1598.541,1082.234,1596.951z"/>
		<path style="fill:#FFFFFF;" d="M1171.248,1577.185c2.711,1.54,4.884,3.719,6.506,6.542c1.629,2.82,2.442,6.067,2.442,9.735
			c0,4.057-0.924,7.646-2.77,10.769c-1.852,3.122-4.38,5.524-7.584,7.214c-3.208,1.687-6.758,2.543-10.657,2.568
			c-4.981,0.029-9.333-1.025-13.059-3.172c-3.726-2.14-6.621-5.344-8.693-9.61c-2.071-4.266-3.107-9.509-3.107-15.731
			c0-6.668,1.194-12.451,3.586-17.357c2.395-4.902,5.747-8.646,10.063-11.232c4.316-2.579,9.337-3.891,15.058-3.927
			c3.108-0.021,6.068,0.363,8.88,1.151c2.812,0.787,5.204,1.899,7.175,3.334l-6.287,13.789c-2.568-2.04-5.697-3.047-9.398-3.025
			c-3.01,0.022-5.488,0.882-7.437,2.586c-1.95,1.712-3.22,4.176-3.809,7.402c2.711-2.183,6.139-3.291,10.286-3.316
			C1165.598,1574.883,1168.532,1575.645,1171.248,1577.185z M1161.85,1598.829c0.985-1.065,1.478-2.515,1.478-4.345
			c0-1.834-0.493-3.291-1.478-4.366c-0.989-1.075-2.269-1.611-3.849-1.6c-1.578,0.007-2.859,0.561-3.848,1.647
			c-0.985,1.089-1.478,2.554-1.478,4.388c0,1.83,0.493,3.273,1.478,4.323c0.989,1.05,2.269,1.568,3.848,1.561
			C1159.581,1600.426,1160.861,1599.89,1161.85,1598.829z"/>
		<path style="fill:#FFFFFF;" d="M1198.211,1610.14c-3.528-2.392-6.29-5.877-8.286-10.448c-2-4.571-2.996-10.023-2.996-16.357
			c0-6.333,0.996-11.8,2.996-16.392c1.996-4.601,4.758-8.114,8.286-10.557c3.528-2.438,7.585-3.672,12.171-3.7
			c4.589-0.029,8.646,1.154,12.174,3.549c3.524,2.395,6.287,5.877,8.286,10.448c1.996,4.571,2.996,10.023,2.996,16.357
			c0,6.334-1,11.8-2.996,16.393c-2,4.6-4.762,8.117-8.286,10.556c-3.528,2.438-7.585,3.672-12.174,3.7
			C1205.796,1613.718,1201.739,1612.535,1198.211,1610.14z M1216.302,1583.151c0-9.832-1.971-14.738-5.92-14.713
			c-3.946,0.025-5.917,4.956-5.917,14.789s1.971,14.735,5.917,14.71C1214.331,1597.911,1216.302,1592.984,1216.302,1583.151z"/>
		<path style="fill:#FFFFFF;" d="M1244.718,1581.137c-2.565-2.87-3.849-6.833-3.849-11.891c0-3.387,0.594-6.308,1.777-8.761
			c1.184-2.453,2.823-4.323,4.92-5.618c2.097-1.288,4.453-1.946,7.067-1.96c2.614-0.018,4.967,0.608,7.067,1.874
			c2.093,1.265,3.737,3.114,4.92,5.553c1.184,2.438,1.773,5.351,1.773,8.74c0,5.056-1.28,9.035-3.844,11.94
			c-2.568,2.906-5.873,4.37-9.916,4.395C1250.588,1585.435,1247.282,1584.014,1244.718,1581.137z M1285.046,1553.552l12.501-0.079
			l-35.368,58.559l-12.505,0.08L1285.046,1553.552z M1256.964,1574.688c0.615-1.144,0.924-2.996,0.924-5.549
			c0-2.557-0.309-4.399-0.924-5.535c-0.619-1.137-1.396-1.701-2.331-1.694c-0.939,0.007-1.715,0.58-2.33,1.723
			c-0.619,1.144-0.924,2.993-0.924,5.55c0,2.553,0.306,4.398,0.924,5.535c0.615,1.133,1.391,1.702,2.33,1.694
			C1255.568,1576.404,1256.345,1575.829,1256.964,1574.688z M1282.676,1608.403c-2.564-2.874-3.849-6.838-3.849-11.894
			c0-3.387,0.594-6.308,1.777-8.761c1.184-2.453,2.823-4.324,4.92-5.614c2.097-1.291,4.453-1.946,7.067-1.961
			c2.615-0.018,4.97,0.608,7.067,1.87c2.096,1.266,3.737,3.119,4.92,5.554c1.184,2.438,1.777,5.351,1.777,8.739
			c0,5.057-1.284,9.038-3.848,11.941c-2.565,2.906-5.873,4.373-9.916,4.398C1288.545,1612.701,1285.24,1611.272,1282.676,1608.403z
			 M1294.922,1601.95c0.615-1.144,0.924-2.993,0.924-5.549c0-2.554-0.309-4.402-0.924-5.535c-0.619-1.133-1.396-1.702-2.331-1.694
			c-0.939,0.004-1.715,0.583-2.33,1.723c-0.619,1.144-0.924,2.993-0.924,5.546c0,2.557,0.306,4.406,0.924,5.539
			c0.615,1.137,1.391,1.698,2.33,1.694C1293.526,1603.666,1294.303,1603.094,1294.922,1601.95z"/>
		<path style="fill:#FFFFFF;" d="M1350.117,1609.269c-3.578-2.006-6.376-4.794-8.398-8.362c-2.025-3.575-3.035-7.635-3.035-12.193
			c0-4.553,1.011-8.632,3.035-12.228c2.021-3.597,4.819-6.406,8.398-8.427c3.575-2.021,7.607-3.05,12.091-3.079
			c4.54-0.029,8.596,0.949,12.175,2.928c3.575,1.979,6.363,4.751,8.362,8.319c1.996,3.575,2.996,7.639,2.996,12.193
			c0,4.556-1,8.631-2.996,12.228c-1.999,3.597-4.787,6.42-8.362,8.47c-3.579,2.05-7.635,3.09-12.175,3.119
			C1357.725,1612.265,1353.693,1611.276,1350.117,1609.269z M1366.946,1595.164c1.234-1.59,1.849-3.802,1.849-6.636
			c0-2.834-0.615-5.024-1.849-6.575c-1.234-1.546-2.812-2.312-4.737-2.302c-1.924,0.011-3.499,0.798-4.729,2.36
			c-1.234,1.564-1.852,3.765-1.852,6.599c0,2.834,0.619,5.035,1.852,6.611c1.23,1.576,2.805,2.359,4.729,2.349
			C1364.134,1597.559,1365.712,1596.753,1366.946,1595.164z"/>
		<path style="fill:#FFFFFF;" d="M1412.751,1567.999l8.804-0.057v13.753l-8.286,0.054v29.333l-16.724,0.105v-29.333l-5.549,0.035
			v-13.753l5.549-0.036v-0.248c0-5.945,1.578-10.664,4.736-14.156c3.155-3.492,7.596-5.255,13.318-5.29
			c1.874-0.015,3.701,0.169,5.474,0.547c1.777,0.377,3.259,0.924,4.442,1.64l-3.995,13.109c-1.381-0.712-2.64-1.068-3.774-1.061
			c-1.233,0.007-2.208,0.446-2.923,1.313c-0.716,0.863-1.072,2.187-1.072,3.964V1567.999z"/>
		<path style="fill:#FFFFFF;" d="M1447.968,1567.776l8.804-0.054v13.753l-8.286,0.05v29.334l-16.724,0.108v-29.333l-5.549,0.032
			v-13.753l5.549-0.032v-0.248c0-5.945,1.579-10.664,4.737-14.16c3.154-3.488,7.596-5.254,13.318-5.29
			c1.874-0.011,3.701,0.172,5.474,0.546c1.777,0.378,3.258,0.928,4.442,1.643l-3.996,13.109c-1.381-0.715-2.64-1.072-3.773-1.064
			c-1.234,0.007-2.208,0.446-2.924,1.313c-0.715,0.867-1.072,2.187-1.072,3.964V1567.776z"/>
	</g>
	<g>
		<path style="fill:#FFD500;" d="M267.249,1602.497c-1.762,0-3.222-1.402-3.28-3.179c-0.061-1.813,1.363-3.334,3.176-3.392
			l399.912-13.149c1.568-0.094,3.334,1.359,3.391,3.175c0.061,1.813-1.363,3.334-3.175,3.392l-399.913,13.148
			C267.325,1602.497,267.289,1602.497,267.249,1602.497z"/>
	</g>
	<g>
		<path style="fill:#FFD500;" d="M1514.181,579.503c-1.784,0-3.245-1.425-3.284-3.216c-0.043-1.812,1.395-3.315,3.211-3.355
			l355.197-7.866c0.025-0.004,0.05-0.004,0.071-0.004c1.784,0,3.244,1.424,3.284,3.215c0.043,1.813-1.395,3.316-3.212,3.356
			l-355.197,7.866C1514.227,579.503,1514.202,579.503,1514.181,579.503z"/>
	</g>
</g>
</svg>
